<svg width="512" height="512" xmlns="http://www.w3.org/2000/svg" xmlns:svg="http://www.w3.org/2000/svg">
 <!--! Font Awesome Pro 6.1.1 by @fontawesome - https://fontawesome.com License - https://fontawesome.com/license (Commercial License) Copyright 2022 Fonticons, Inc. -->
 <g>
  <title>bilibili_brands</title>
  <path stroke="#ffffff" fill="#ffffff" id="svg_1" d="m488.6,104.1c16.7,18.1 24.4,39.7 23.3,65.7l0,202.4c-0.4,26.4 -9.2,48.1 -26.5,65.1c-17.2,17 -39.1,25.9 -65.5,26.7l-327.88,0c-26.45,-0.8 -48.21,-9.8 -65.28,-27.2c-17.058,-17.4 -25.9733,-40.3 -26.74,-68.6l0,-198.4c0.7667,-26 9.682,-47.6 26.74,-65.7c17.07,-16.35 38.83,-25.33 65.28,-26.1l29.38,0l-25.35,-25.81c-5.75,-5.73 -8.63,-13 -8.63,-21.79c0,-8.8 2.88,-16.06 8.63,-21.797c5.75,-5.735 13.05,-8.603 21.85,-8.603c8.8,0 16.1,2.868 21.9,8.603l73.3,69.397l88,0l74.5,-69.397c6.1,-5.735 13.6,-8.603 22.4,-8.603c8.8,0 16.1,2.868 21.9,8.603c5.7,5.737 8.6,12.997 8.6,21.797c0,8.79 -2.9,16.06 -8.6,21.79l-25.3,25.81l29.3,0c26.4,0.77 48,9.75 64.7,26.1l0,0zm-38.8,69.7c-0.4,-9.6 -3.7,-17.4 -10.7,-23.5c-5.2,-6.1 -14,-9.4 -22.7,-9.8l-320.35,0c-9.59,0.4 -17.45,3.7 -23.58,9.8c-6.14,6.1 -9.4,13.9 -9.78,23.5l0,194.4c0,9.2 3.26,17 9.78,23.5c6.52,6.5 14.38,9.8 23.58,9.8l320.35,0c9.2,0 17,-3.3 23.3,-9.8c6.3,-6.5 9.7,-14.3 10.1,-23.5l0,-194.4zm-264.3,42.7c6.3,6.3 9.7,14.1 10.1,23.2l0,33.3c-0.4,9.2 -3.7,16.9 -9.8,23.2c-6.2,6.3 -14,9.5 -23.6,9.5c-9.6,0 -17.5,-3.2 -23.6,-9.5c-6.1,-6.3 -9.4,-14 -9.8,-23.2l0,-33.3c0.4,-9.1 3.8,-16.9 10.1,-23.2c6.3,-6.3 13.2,-9.6 23.3,-10c9.2,0.4 17,3.7 23.3,10l0,0zm191.5,0c6.3,6.3 9.7,14.1 10.1,23.2l0,33.3c-0.4,9.2 -3.7,16.9 -9.8,23.2c-6.1,6.3 -14,9.5 -23.6,9.5c-9.6,0 -17.4,-3.2 -23.6,-9.5c-7,-6.3 -9.4,-14 -9.7,-23.2l0,-33.3c0.3,-9.1 3.7,-16.9 10,-23.2c6.3,-6.3 14.1,-9.6 23.3,-10c9.2,0.4 17,3.7 23.3,10l0,0z"/>
 </g>
</svg>