<svg width="512" height="512" xmlns="http://www.w3.org/2000/svg" xmlns:svg="http://www.w3.org/2000/svg">
 <!--! Font Awesome Pro 6.1.1 by @fontawesome - https://fontawesome.com License - https://fontawesome.com/license (Commercial License) Copyright 2022 Fonticons, Inc. -->
 <g>
  <title>circle_down_regular</title>
  <path fill="#ffffff" id="svg_1" d="m344,240l-56,0l-0.9,-88c0,-13.25 -10.75,-24 -24,-24l-16,0c-12.4,0 -24,10.8 -24,24l0.9,88l-56,0c-9.531,0 -18.16,5.656 -22,14.38c-3.8,8.72 -2.1,18.92 4.4,25.92l88.75,96c4.55,4.9 10.95,7.7 17.65,7.7c7.781,-0.3125 13.25,-2.875 17.75,-7.844l87.25,-96c6.406,-7.031 8.031,-17.19 4.188,-25.88s-12.488,-14.276 -21.988,-14.276zm-88,-240c-141.4,0 -256,114.6 -256,256s114.6,256 256,256s256,-114.6 256,-256s-114.6,-256 -256,-256zm0,464c-114.7,0 -208,-93.31 -208,-208s93.3,-208 208,-208s208,93.31 208,208s-93.3,208 -208,208z"/>
 </g>
</svg>