<svg width="512" height="512" xmlns="http://www.w3.org/2000/svg" xmlns:svg="http://www.w3.org/2000/svg">
 <!--! Font Awesome Pro 6.1.2 by @fontawesome - https://fontawesome.com License - https://fontawesome.com/license (Commercial License) Copyright 2022 Fonticons, Inc. -->
 <g>
  <title>envelope_solid</title>
  <path fill="#ffffff" id="svg_1" d="m464,64c26.5,0 48,21.49 48,48c0,15.1 -7.1,29.3 -19.2,38.4l-217.6,163.2c-11.4,8.5 -27,8.5 -38.4,0l-217.6,-163.2c-12.087,-9.1 -19.2,-23.3 -19.2,-38.4c0,-26.51 21.49,-48 48,-48l416,0zm-246.4,275.2c22.8,17.1 54,17.1 76.8,0l217.6,-163.2l0,208c0,35.3 -28.7,64 -64,64l-384,0c-35.35,0 -64,-28.7 -64,-64l0,-208l217.6,163.2z"/>
 </g>
</svg>