<svg width="512" height="512" xmlns="http://www.w3.org/2000/svg" xmlns:svg="http://www.w3.org/2000/svg">
 <!--! Font Awesome Pro 6.1.1 by @fontawesome - https://fontawesome.com License - https://fontawesome.com/license (Commercial License) Copyright 2022 Fonticons, Inc. -->
 <g>
  <title>phone_solid</title>
  <path fill="#ffffff" id="svg_1" d="m511.2,387l-23.25,100.8c-3.266,14.25 -15.79,24.22 -30.46,24.22c-252.29,-0.02 -457.49,-205.22 -457.49,-457.52c0,-14.66 9.969,-27.2 24.22,-30.45l100.8,-23.25c14.68,-3.402 29.68,4.218 35.78,18.12l46.52,108.5c5.438,12.78 1.77,27.67 -8.98,36.45l-53.84,43.23c33.98,69.22 90.26,125.5 159.5,159.5l44.08,-53.8c8.688,-10.78 23.69,-14.51 36.47,-8.975l108.5,46.51c13.05,6.865 21.55,22.065 18.15,36.665z"/>
 </g>
</svg>