<svg width="640" height="512" xmlns="http://www.w3.org/2000/svg" xmlns:svg="http://www.w3.org/2000/svg">
 <!--! Font Awesome Pro 6.1.1 by @fontawesome - https://fontawesome.com License - https://fontawesome.com/license (Commercial License) Copyright 2022 Fonticons, Inc. -->
 <g>
  <title>zhihu_brands</title>
  <path fill="#ffffff" id="svg_1" d="m170.54,199.13l0,217.54l23.43,0.01l7.71,26.37l42.01,-26.37l49.53,0l0,-217.55l-122.68,0zm97.75,193.93l-27.94,0l-27.9,17.51l-5.08,-17.47l-11.9,-0.04l0,-170.31l72.82,0l0,170.31zm-118.46,-94.39l-52.33,0c1.74,-27.1 2.2,-51.59 2.2,-73.46l51.16,0s1.97,-22.56 -8.58,-22.31l-88.5,0c3.49,-13.12 7.87,-26.66 13.12,-40.67c0,0 -24.07,0 -32.27,21.57c-3.39,8.9 -13.21,43.14 -30.7,78.12c5.89,-0.64 25.37,-1.18 36.84,-22.21c2.11,-5.89 2.51,-6.66 5.14,-14.53l28.87,0c0,10.5 -1.2,66.88 -1.68,73.44l-52.27,0c-11.74,0 -15.56,23.62 -15.56,23.62l65.58,0c-4.4,49.86 -28.02,91.88 -70.85,125.1c20.49,5.85 40.91,-0.93 51,-9.9c0,0 22.98,-20.9 35.59,-69.25l53.96,64.94s7.91,-26.89 -1.24,-39.99c-7.58,-8.92 -28.06,-33.06 -36.79,-41.81l-14.62,11.62c4.36,-13.98 6.99,-27.55 7.87,-40.67l61.65,0s-0.09,-23.62 -7.59,-23.62l0,0.01zm412.02,-1.6c20.83,-25.64 44.98,-58.57 44.98,-58.57s-18.65,-14.8 -27.38,-4.06c-6,8.15 -36.83,48.2 -36.83,48.2l19.23,14.43zm-150.09,-59.09c-9.01,-8.25 -25.91,2.13 -25.91,2.13s39.52,55.04 41.12,57.45l19.46,-13.73s-25.67,-37.61 -34.66,-45.86l-0.01,0l0,0.01zm228.24,71.38c-19.78,0 -130.91,0.93 -131.06,0.93l0,-101c4.81,0 12.42,-0.4 22.85,-1.2c40.88,-2.41 70.13,-4 87.77,-4.81c0,0 12.22,-27.19 -0.59,-33.44c-3.07,-1.18 -23.17,4.58 -23.17,4.58s-165.22,16.49 -232.36,18.05c1.6,8.82 7.62,17.08 15.78,19.55c13.31,3.48 22.69,1.7 49.15,0.89c24.83,-1.6 43.68,-2.43 56.51,-2.43l0,99.81l-133.47,0s2.82,22.31 25.51,22.85l107.94,0l0,70.92c0,13.97 -11.19,21.99 -24.48,21.12c-14.08,0.11 -26.08,-1.15 -41.69,-1.81c1.99,3.97 6.33,14.39 19.31,21.84c9.88,4.81 16.17,6.57 26.02,6.57c29.56,0 45.67,-17.28 44.89,-45.31l0,-73.32l122.36,0c9.68,0 8.7,-23.78 8.7,-23.78l0.03,-0.01z"/>
 </g>
</svg>